<svg width="1300" height="1300" viewBox="0 0 1300 1300" fill="none" xmlns="http://www.w3.org/2000/svg">
<path d="M650 1300C290.71 1300 0 1008.86 0 650C0 290.71 291.141 0 650 0C1009.29 0 1300 291.141 1300 650C1300.43 1009.29 1009.29 1300 650 1300Z" fill="#F4DA92"/>
<mask id="mask0_32_1412" style="mask-type:alpha" maskUnits="userSpaceOnUse" x="0" y="0" width="1300" height="1300">
<path d="M650 1300C290.71 1300 0 1008.86 0 650C0 290.71 291.141 0 650 0C1009.29 0 1300 291.141 1300 650C1300.43 1009.29 1009.29 1300 650 1300Z" fill="#F7C0B5"/>
</mask>
<g mask="url(#mask0_32_1412)">
<path d="M1014 1197.33C1010.97 1199.5 1007.5 1201.67 1004.47 1203.83C1001 1206 997.966 1208.17 994.5 1209.9C991.466 1211.63 988.866 1213.37 985.833 1215.1C985.4 1215.53 984.966 1215.53 984.533 1215.97C974.566 1222.03 964.166 1227.67 953.766 1232.87C950.733 1234.6 947.266 1236.33 944.233 1237.63C944.233 1237.63 943.8 1238.07 943.366 1238.07C939.9 1239.8 936.433 1241.53 932.966 1243.27C926.033 1246.73 918.666 1249.77 911.733 1252.8C908.266 1254.53 904.366 1255.83 900.9 1257.13C897.433 1258.43 893.533 1260.17 890.067 1261.47C886.6 1262.77 882.7 1264.5 879.233 1265.8C879.233 1265.8 879.233 1265.8 878.8 1265.8C875.333 1267.1 871.433 1268.4 867.966 1269.7C860.167 1272.3 851.933 1274.9 844.133 1277.5C841.533 1278.37 838.5 1279.23 835.9 1280.1C827.667 1282.7 819.433 1284.87 811.2 1286.6C808.167 1287.47 805.133 1287.9 801.667 1288.77C793.867 1290.5 785.633 1292.23 777.833 1293.97C776.1 1294.4 774.8 1294.4 773.067 1294.83C770.467 1295.27 767.433 1295.7 764.833 1296.13C760.933 1296.57 757.467 1297.43 753.567 1297.87C751.833 1298.3 750.1 1298.3 748.367 1298.73C746.2 1299.17 743.6 1299.6 741 1299.6C734.067 1300.47 726.7 1301.33 719.767 1302.2C717.6 1302.63 715 1302.63 712.833 1303.07H712.4C709.367 1303.5 706.333 1303.5 703.3 1303.93C700.267 1304.37 697.233 1304.37 694.2 1304.37C692.467 1304.37 690.3 1304.8 688.567 1304.8C685.1 1304.8 682.067 1305.23 679.033 1305.23C674.7 1305.23 670.8 1305.67 666.467 1305.67C662.133 1305.67 658.233 1305.67 653.9 1305.67C650.867 1305.67 647.833 1305.67 644.8 1305.67C462.367 1303.07 297.7 1225.5 180.7 1102.43C180.7 1102.43 180.7 1102 180.267 1102C193.7 1075.57 243.534 1027.9 295.534 988.466C361.4 938.633 454.567 907.866 454.567 907.866C454.567 907.866 515.667 897.899 742.3 945.133C915.2 981.533 988.866 1129.3 1014 1197.33Z" fill="#F7D3B5"/>
<path d="M790.4 1065.17C781.3 1109.8 722.367 1136.23 623.134 1096.37C501.367 1046.97 454.567 907.865 454.567 907.865C448.067 808.199 432.901 722.832 432.901 722.832C573.734 710.699 740.134 875.365 740.134 875.365L759.2 956.832C760.934 963.765 764.4 969.832 769.6 974.165C778.7 989.765 796.467 1036.57 790.4 1065.17Z" fill="#F7D3B5"/>
<path d="M769.6 974.599C686.834 970.265 625.734 958.132 560.3 840.699C615.767 889.665 681.2 908.299 750.1 916.965L759.2 956.832C760.934 964.199 764.4 970.265 769.6 974.599Z" fill="#EFBDA5"/>
<path d="M940.766 452.432C948.566 488.832 952.466 518.299 931.233 615.366C910 712.432 950.733 809.499 848.466 898.332C779.566 958.132 659.1 969.399 562.9 903.966C530.4 881.866 500.5 851.099 476.233 810.799C457.167 779.166 435.067 749.266 410.367 721.966C376.133 684.699 334.967 609.732 355.333 477.132C388.267 261.332 601.9 236.632 728 260.466C854.1 284.299 919.533 356.232 940.766 452.432Z" fill="#F7D3B5"/>
<path d="M526.067 621.867C526.067 621.867 512.633 556.867 449.367 564.667C394.767 571.6 375.7 702.467 499.633 738.867" fill="#F7D3B5"/>
<path d="M495.734 679.5C495.734 679.5 480.134 669.533 481.867 652.2C484.467 631.833 481.867 619.266 472.334 615.366C448.5 605.4 443.734 633.133 444.6 636.6" stroke="#423232" stroke-width="13.4786" stroke-miterlimit="10" stroke-linecap="round" stroke-linejoin="round"/>
<path d="M826.366 721.533C826.366 721.533 842.833 722.4 858.433 703.766C867.1 693.366 874.466 680.366 869.7 676.466C864.933 672.133 786.5 684.266 781.3 694.666C776.1 705.066 806.433 721.533 826.366 721.533Z" fill="#EFBDA5"/>
<path d="M839.367 575.931C839.367 575.931 840.234 617.098 866.667 663.031C878.367 683.398 860.6 716.765 822.034 722.398" stroke="#423232" stroke-width="13.4786" stroke-miterlimit="10" stroke-linecap="round" stroke-linejoin="round"/>
<path opacity="0.42" d="M604.499 743.632C629.149 743.632 649.132 727.141 649.132 706.799C649.132 686.456 629.149 669.966 604.499 669.966C579.849 669.966 559.866 686.456 559.866 706.799C559.866 727.141 579.849 743.632 604.499 743.632Z" fill="#ED938A"/>
<path opacity="0.42" d="M924.299 670.832C922.999 695.099 923.433 718.932 921.699 742.765C902.633 738.432 888.766 724.132 888.766 707.232C888.766 689.032 903.933 674.299 924.299 670.832Z" fill="#ED938A"/>
<path d="M905.624 1028.73C905.624 1028.73 838.458 965.899 772.158 950.733C772.158 950.733 828.058 1041.73 663.824 1024.83C536.424 1011.83 453.658 905.233 453.658 905.233C453.658 905.233 370.025 928.633 302.425 980.199C302.425 980.199 311.525 1113.23 463.625 1179.1C615.724 1244.97 827.624 1212.47 877.891 1170C928.158 1127.53 918.191 1042.6 905.624 1028.73Z" fill="#444444"/>
<path d="M265.157 1009.23C265.157 1009.23 137.757 1055.6 91.8236 1187.77C45.8902 1319.93 90.5235 1516.67 90.5235 1516.67H1104.52C1104.52 1516.67 1112.76 1288.3 1042.56 1161.33C1026.09 1131.87 980.59 1084.2 948.09 1069.03C948.09 1069.03 960.223 1180.83 768.257 1190.8C576.29 1200.77 345.324 1139.67 339.69 1104.13C334.49 1067.73 265.157 1009.23 265.157 1009.23Z" fill="white"/>
<path d="M994.023 1524.47C721.89 1650.13 273.823 1536.6 273.823 1536.6C273.823 1536.6 264.723 1426.1 297.656 1227.2C298.956 1218.1 300.256 1209 301.123 1200.77C310.656 1110.63 288.556 1048.67 265.156 1009.67C265.156 999.7 275.557 992.766 287.257 982.8C292.023 978.9 298.523 978.466 301.99 981.066C308.056 989.733 313.69 998.4 318.456 1007.5C366.99 1097.2 462.323 1144.87 563.723 1154.83C701.956 1168.7 759.59 1166.53 828.49 1151.37C894.79 1136.63 924.69 1097.63 906.056 1032.63C905.623 1031.77 905.623 1030.47 905.19 1029.17C916.89 1028.3 944.19 1050.83 953.29 1084.2C962.823 1125.37 970.19 1171.73 975.823 1218.1C994.456 1369.33 994.023 1524.47 994.023 1524.47Z" fill="#444444"/>
<path d="M366.123 940.333C366.123 940.333 450.19 1109.77 595.79 1202.5C609.223 1211.17 626.99 1207.7 636.523 1195.13L716.256 1091.13L810.723 1175.63C821.556 1185.6 839.323 1179.97 842.79 1165.67C851.023 1129.27 857.523 1061.67 826.756 971.533" stroke="white" stroke-width="13.4786" stroke-miterlimit="10" stroke-linecap="round" stroke-linejoin="round"/>
<path d="M737.057 1464.67C748.324 1335.1 716.257 1091.57 716.257 1091.57" stroke="white" stroke-width="13.4786" stroke-miterlimit="10" stroke-linecap="round" stroke-linejoin="round"/>
<path d="M783.856 1234.13C792.472 1234.13 799.456 1227.15 799.456 1218.53C799.456 1209.92 792.472 1202.93 783.856 1202.93C775.241 1202.93 768.256 1209.92 768.256 1218.53C768.256 1227.15 775.241 1234.13 783.856 1234.13Z" fill="white"/>
<path d="M790.789 1312.13C799.404 1312.13 806.389 1305.15 806.389 1296.53C806.389 1287.92 799.404 1280.93 790.789 1280.93C782.173 1280.93 775.188 1287.92 775.188 1296.53C775.188 1305.15 782.173 1312.13 790.789 1312.13Z" fill="white"/>
<path d="M698.923 1017.03C698.923 1017.03 632.623 976.733 605.323 983.666C577.59 990.599 587.123 1090.27 604.89 1106.3C622.657 1122.33 698.49 1071.2 703.257 1066.87C708.023 1062.53 705.857 1023.97 698.923 1017.03Z" fill="white"/>
<path d="M724.057 1017.47C724.057 1017.47 750.057 976.733 776.491 971.533C802.491 966.333 814.624 1076.4 802.924 1086.8C791.224 1096.77 736.624 1075.1 730.557 1068.17C724.057 1061.67 720.591 1030.9 724.057 1017.47Z" fill="white"/>
<path d="M751.79 1052.13C753.09 1028.3 736.19 1007.93 713.657 1005.77C691.123 1003.6 671.623 1020.93 669.457 1044.77C667.723 1069.03 684.623 1090.27 707.59 1092.43C730.99 1094.17 750.49 1076.4 751.79 1052.13Z" fill="#444444"/>
<path d="M669.456 1044.77C669.889 1061.67 678.989 1076.83 692.856 1084.2C706.289 1091.57 723.622 1089.4 734.889 1079C746.156 1069.03 750.489 1052.13 746.589 1037.4C742.689 1022.67 730.556 1009.23 713.656 1005.77C717.989 1005.77 721.889 1006.63 726.222 1007.93C730.122 1009.23 734.022 1011.4 737.489 1014C744.422 1019.2 750.056 1027 752.656 1035.23C755.689 1043.9 756.122 1053 753.956 1062.1C752.656 1066.43 750.922 1070.77 748.756 1074.67C746.589 1078.57 743.556 1082.03 740.089 1085.5C733.156 1091.57 724.489 1095.9 715.389 1096.33C706.289 1097.2 696.756 1095.03 689.389 1089.83C681.589 1085.07 675.956 1077.7 672.489 1069.9C669.022 1062.1 668.156 1053 669.456 1044.77Z" fill="white"/>
<path d="M699.711 590.25C699.711 590.683 699.711 591.117 699.711 591.117L699.278 603.25C698.845 613.65 690.178 621.45 679.778 621.017C669.378 620.583 661.578 611.483 662.445 601.517L662.878 589.383C662.878 587.217 663.745 584.617 664.611 582.883L699.278 584.617C699.278 586.35 699.711 588.083 699.711 590.25Z" fill="#423232"/>
<path d="M880.84 599.783L880.407 611.05C879.973 620.583 871.74 627.95 862.206 627.517C852.673 627.083 845.307 618.85 845.74 609.316L846.173 598.05C846.173 595.883 846.606 593.716 847.473 591.983L879.973 593.283C880.84 595.45 880.84 597.616 880.84 599.783Z" fill="#423232"/>
<path d="M743.041 530.881C752.574 532.181 759.941 522.215 756.474 512.681C754.741 507.481 751.708 502.715 746.941 499.681C732.208 490.581 677.174 489.715 648.141 510.515C622.574 529.581 699.708 524.815 743.041 530.881Z" fill="#423232"/>
<path d="M863.074 535.648C855.274 535.648 850.507 525.682 854.407 517.448C856.574 513.115 859.607 509.215 863.941 507.049C877.374 500.549 913.341 504.449 929.374 526.549C943.674 546.049 899.041 535.215 863.074 535.648Z" fill="#423232"/>
<path d="M727.874 585.482L698.841 584.182L664.175 582.882L656.375 582.449" stroke="#423232" stroke-width="13.4786" stroke-miterlimit="10" stroke-linecap="round" stroke-linejoin="round"/>
<path d="M899.042 594.15L879.976 593.283L847.476 591.983H846.176" stroke="#423232" stroke-width="13.4786" stroke-miterlimit="10" stroke-linecap="round" stroke-linejoin="round"/>
<path d="M816.925 774.866C805.693 779.808 800.302 769.923 782.779 778.46C770.199 784.301 763.46 786.098 748.184 777.112C738.3 770.822 726.169 779.808 714.488 762.735" stroke="#423232" stroke-width="13.4786" stroke-miterlimit="10" stroke-linecap="round" stroke-linejoin="round"/>
<path d="M947.25 445.323C945.95 438.823 944.217 431.89 942.05 425.39C939.883 418.89 934.683 413.257 927.75 411.957C905.217 408.057 883.55 369.057 852.35 364.723C753.117 351.29 686.817 359.523 593.65 395.923C497.45 433.19 600.583 567.956 531.683 612.156C528.217 600.023 511.317 550.623 455.85 557.556C403.417 564.056 383.483 685.39 491.817 726.99C444.583 804.123 448.05 773.356 413.383 731.756C378.717 690.156 309.383 582.256 356.183 424.523C402.983 266.79 614.883 184.457 812.05 264.623C845.85 278.49 866.217 312.723 895.683 318.357C1169.98 370.79 953.75 476.523 947.25 445.323Z" fill="#423232"/>
<path d="M680.75 363.422C680.75 363.422 643.917 352.589 621.817 410.222C599.717 467.856 522.584 547.156 458.45 454.856C394.317 362.989 490.517 289.322 590.617 319.222C690.717 349.122 679.45 326.589 680.75 363.422Z" fill="#423232"/>
<path d="M744.449 321.39C744.449 321.39 841.949 383.356 906.082 359.09C946.382 343.923 991.882 288.023 960.249 246.423C922.549 196.59 805.982 234.29 740.982 213.49C643.482 182.29 492.249 161.49 421.182 278.49C403.416 307.956 387.382 337.856 362.249 361.256C336.249 385.523 310.249 424.956 308.082 486.49C304.182 609.123 400.382 715.723 400.382 715.723C400.382 715.723 343.182 505.99 451.082 474.79C558.982 443.59 588.882 335.69 660.382 335.69C731.882 335.69 698.516 255.09 744.449 321.39Z" fill="#423232"/>
<path d="M839.349 376.423C839.349 376.423 917.783 474.356 976.716 468.723C1035.65 463.09 1101.95 336.556 939.883 293.223C777.816 249.89 839.349 376.423 839.349 376.423Z" fill="#423232"/>
<path d="M680.75 363.422C680.75 363.422 732.317 490.822 869.25 505.989C1006.62 521.589 1062.08 270.255 852.35 246.422C642.616 222.589 680.75 363.422 680.75 363.422Z" fill="#423232"/>
<path d="M571.116 303.623C571.116 303.623 603.182 449.223 670.782 455.723C738.382 462.223 720.182 274.157 631.782 261.157C543.382 248.157 571.116 303.623 571.116 303.623Z" fill="#423232"/>
<path d="M877.817 658.314C866.117 644.014 850.95 634.047 832.75 633.614C813.683 633.18 783.783 637.514 753.883 661.347C714.883 692.547 636.884 687.78 606.117 684.747C597.45 683.88 589.217 688.214 585.317 696.014C576.65 713.347 564.95 749.314 570.584 807.38C577.95 886.68 642.517 958.614 733.517 952.547C853.117 945.18 922.883 848.98 927.217 720.28C926.35 684.747 905.117 692.114 877.817 658.314Z" fill="white"/>
<path d="M717.918 684.748C717.918 684.748 900.352 767.081 915.952 707.281" stroke="#EDF3F4" stroke-width="13.4786" stroke-miterlimit="10" stroke-linecap="round" stroke-linejoin="round"/>
<path d="M644.251 743.681C644.251 743.681 828.417 848.981 911.184 791.781" stroke="#EDF3F4" stroke-width="13.4786" stroke-miterlimit="10" stroke-linecap="round" stroke-linejoin="round"/>
<path d="M637.751 818.214C637.751 818.214 732.651 903.581 869.151 872.814" stroke="#EDF3F4" stroke-width="13.4786" stroke-miterlimit="10" stroke-linecap="round" stroke-linejoin="round"/>
<path d="M662.885 692.113C662.885 692.113 644.685 717.247 637.319 783.547C628.652 863.28 666.352 929.58 666.352 929.58" stroke="#EDF3F4" stroke-width="13.4786" stroke-miterlimit="10" stroke-linecap="round" stroke-linejoin="round"/>
<path d="M602.652 695.581C602.652 695.581 552.818 660.914 517.718 601.114" stroke="white" stroke-width="13.4786" stroke-miterlimit="10" stroke-linecap="round" stroke-linejoin="round"/>
<path d="M492.152 735.881C502.119 768.381 526.818 821.248 589.218 868.915" stroke="white" stroke-width="13.4786" stroke-miterlimit="10" stroke-linecap="round" stroke-linejoin="round"/>
</g>
</svg>
