<svg width="1300" height="1300" viewBox="0 0 1300 1300" fill="none" xmlns="http://www.w3.org/2000/svg">
<path d="M650 1300C290.71 1300 0 1008.86 0 650C0 290.71 291.141 0 650 0C1009.29 0 1300 291.141 1300 650C1300.43 1009.29 1009.29 1300 650 1300Z" fill="#B5E2DC"/>
<mask id="mask0_32_1432" style="mask-type:alpha" maskUnits="userSpaceOnUse" x="0" y="0" width="1300" height="1300">
<path d="M650 1300C290.71 1300 0 1008.86 0 650C0 290.71 291.141 0 650 0C1009.29 0 1300 291.141 1300 650C1300.43 1009.29 1009.29 1300 650 1300Z" fill="#F7C0B5"/>
</mask>
<g mask="url(#mask0_32_1432)">
<path d="M1014 1197.33C1010.97 1199.5 1007.5 1201.67 1004.47 1203.83C1001 1206 997.967 1208.17 994.5 1209.9C991.467 1211.63 988.867 1213.37 985.833 1215.1C985.4 1215.53 984.967 1215.53 984.533 1215.97C974.567 1222.03 964.167 1227.67 953.767 1232.87C950.733 1234.6 947.267 1236.33 944.233 1237.63C944.233 1237.63 943.8 1238.07 943.367 1238.07C939.9 1239.8 936.433 1241.53 932.967 1243.27C926.033 1246.73 918.667 1249.77 911.734 1252.8C908.267 1254.53 904.367 1255.83 900.9 1257.13C897.434 1258.43 893.534 1260.17 890.067 1261.47C886.6 1262.77 882.7 1264.5 879.234 1265.8C879.234 1265.8 879.234 1265.8 878.8 1265.8C875.334 1267.1 871.434 1268.4 867.967 1269.7C860.167 1272.3 851.934 1274.9 844.134 1277.5C841.534 1278.37 838.5 1279.23 835.9 1280.1C827.667 1282.7 819.434 1284.87 811.2 1286.6C808.167 1287.47 805.134 1287.9 801.667 1288.77C793.867 1290.5 785.634 1292.23 777.834 1293.97C776.1 1294.4 774.8 1294.4 773.067 1294.83C770.467 1295.27 767.434 1295.7 764.834 1296.13C760.934 1296.57 757.467 1297.43 753.567 1297.87C751.834 1298.3 750.1 1298.3 748.367 1298.73C746.2 1299.17 743.6 1299.6 741 1299.6C734.067 1300.47 726.7 1301.33 719.767 1302.2C717.6 1302.63 715 1302.63 712.834 1303.07H712.4C709.367 1303.5 706.334 1303.5 703.3 1303.93C700.267 1304.37 697.234 1304.37 694.2 1304.37C692.467 1304.37 690.3 1304.8 688.567 1304.8C685.1 1304.8 682.067 1305.23 679.034 1305.23C674.7 1305.23 670.8 1305.67 666.467 1305.67C662.134 1305.67 658.234 1305.67 653.9 1305.67C650.867 1305.67 647.834 1305.67 644.8 1305.67C462.367 1303.07 297.7 1225.5 180.701 1102.43C180.701 1102.43 180.701 1102 180.267 1102C193.701 1075.57 243.534 1027.9 295.534 988.466C361.4 938.633 454.567 907.866 454.567 907.866C454.567 907.866 515.667 897.899 742.3 945.133C915.2 981.533 988.867 1129.3 1014 1197.33Z" fill="#F7D3B5"/>
<path d="M790.4 1065.17C781.3 1109.8 722.367 1136.23 623.134 1096.37C501.367 1046.97 454.567 907.865 454.567 907.865C448.067 808.199 432.9 722.832 432.9 722.832C573.734 710.699 740.133 875.365 740.133 875.365L759.2 956.832C760.934 963.765 764.4 969.832 769.6 974.165C778.7 989.765 796.467 1036.57 790.4 1065.17Z" fill="#F7D3B5"/>
<path d="M769.6 974.599C686.834 970.265 625.734 958.132 560.3 840.699C615.767 889.665 681.2 908.299 750.1 916.965L759.2 956.832C760.934 964.199 764.4 970.265 769.6 974.599Z" fill="#EFBDA5"/>
<path d="M940.767 452.432C948.567 488.832 952.467 518.299 931.233 615.366C910 712.432 950.733 809.499 848.467 898.332C779.567 958.132 659.1 969.399 562.9 903.966C530.4 881.866 500.5 851.099 476.234 810.799C457.167 779.166 435.067 749.266 410.367 721.966C376.134 684.699 334.967 609.732 355.334 477.132C388.267 261.332 601.9 236.632 728 260.466C854.1 284.299 919.533 356.232 940.767 452.432Z" fill="#F7D3B5"/>
<path d="M526.067 621.867C526.067 621.867 512.634 556.867 449.367 564.667C394.767 571.6 375.701 702.467 499.634 738.867" fill="#F7D3B5"/>
<path d="M495.734 679.5C495.734 679.5 480.134 669.533 481.867 652.2C484.467 631.833 481.867 619.266 472.334 615.366C448.501 605.4 443.734 633.133 444.601 636.6" stroke="#423232" stroke-width="13.4786" stroke-miterlimit="10" stroke-linecap="round" stroke-linejoin="round"/>
<path d="M826.367 721.533C826.367 721.533 842.833 722.4 858.433 703.766C867.1 693.366 874.467 680.366 869.7 676.466C864.933 672.133 786.5 684.266 781.3 694.666C776.1 705.066 806.433 721.533 826.367 721.533Z" fill="#EFBDA5"/>
<path d="M839.367 575.931C839.367 575.931 840.234 617.098 866.667 663.031C878.367 683.398 860.6 716.765 822.034 722.398" stroke="#423232" stroke-width="13.4786" stroke-miterlimit="10" stroke-linecap="round" stroke-linejoin="round"/>
<path opacity="0.42" d="M604.5 743.632C629.151 743.632 649.134 727.141 649.134 706.799C649.134 686.456 629.151 669.966 604.5 669.966C579.85 669.966 559.867 686.456 559.867 706.799C559.867 727.141 579.85 743.632 604.5 743.632Z" fill="#ED938A"/>
<path opacity="0.42" d="M924.3 670.832C923 695.099 923.434 718.932 921.7 742.765C902.634 738.432 888.767 724.132 888.767 707.232C888.767 689.032 903.934 674.299 924.3 670.832Z" fill="#ED938A"/>
<path d="M1057.78 1116.61C996.25 1037.31 900.917 1004.37 848.483 984.872C844.15 963.205 835.917 939.372 822.917 916.405C802.983 928.539 780.017 937.639 756.184 942.405L759.65 956.705C761.383 963.639 770.05 995.705 756.617 1036.87C745.35 1071.54 699.85 1087.14 622.717 1052.04C472.35 984.005 455.017 907.305 455.017 907.305C452.417 865.705 448.084 826.705 444.184 795.072C397.384 805.472 343.217 826.705 313.75 871.339C277.35 925.939 263.917 981.405 267.384 1025.61C204.117 1065.91 106.184 1127.01 74.1171 1236.21C32.5171 1378.34 39.4504 1465.44 39.4504 1465.44H1159.18C1157.88 1465.87 1141.42 1224.51 1057.78 1116.61Z" fill="#6060D8"/>
<path d="M388.283 974.473C388.283 974.473 414.716 1077.17 530.416 1148.24" stroke="#423232" stroke-width="13.4786" stroke-miterlimit="10" stroke-linecap="round" stroke-linejoin="round"/>
<path d="M848.05 984.873C848.05 984.873 878.817 1117.91 811.65 1179.01" stroke="#423232" stroke-width="13.4786" stroke-miterlimit="10" stroke-linecap="round" stroke-linejoin="round"/>
<path d="M639.184 1158.64C639.184 1158.64 616.65 1224.51 622.717 1270.01" stroke="#423232" stroke-width="13.4786" stroke-miterlimit="10" stroke-linecap="round" stroke-linejoin="round"/>
<path d="M777.417 1154.74C777.417 1154.74 794.317 1191.57 806.451 1250.07" stroke="#423232" stroke-width="13.4786" stroke-miterlimit="10" stroke-linecap="round" stroke-linejoin="round"/>
<path d="M266.517 1026.04C266.517 1026.04 302.051 1170.77 513.517 1213.24" stroke="#423232" stroke-width="13.4786" stroke-miterlimit="10" stroke-linecap="round" stroke-linejoin="round"/>
<path d="M626.617 1279.97L607.55 1278.24C600.617 1277.37 595.417 1270.87 596.717 1263.94L603.217 1231.44C604.95 1222.34 613.617 1215.84 622.717 1217.14C631.817 1218.01 639.183 1225.81 639.183 1235.34L639.617 1268.71C639.617 1275.21 633.55 1280.84 626.617 1279.97Z" fill="white"/>
<path d="M825.517 1260.04L807.317 1266.54C800.384 1269.14 793.017 1264.81 791.717 1257.87L783.917 1225.81C781.75 1216.71 786.517 1207.61 795.617 1204.14C804.284 1201.11 814.25 1205.01 818.15 1213.24L832.45 1243.14C835.484 1249.64 832.45 1257.44 825.517 1260.04Z" fill="white"/>
<path d="M1016.62 1250.07C1016.62 1250.07 1040.88 1386.14 1031.35 1465.87" stroke="#544D4D" stroke-width="13.4786" stroke-miterlimit="10" stroke-linecap="round" stroke-linejoin="round"/>
<path d="M683.943 619.44C673.543 619.006 665.743 610.34 666.609 599.94L667.043 587.806C667.476 577.406 676.143 569.606 686.543 570.473C696.943 570.906 704.743 579.573 703.876 589.973L703.443 602.106C703.009 612.073 694.343 619.873 683.943 619.44Z" fill="#423232"/>
<path d="M866.376 625.939C856.842 625.506 849.476 617.272 849.909 607.739L850.342 596.472C850.776 586.939 859.009 579.572 868.542 580.006C878.076 580.439 885.442 588.672 885.009 598.206L884.576 609.472C884.142 619.006 875.909 626.372 866.376 625.939Z" fill="#423232"/>
<path d="M725.976 594.305C725.976 594.305 714.71 578.271 695.21 575.238C679.176 572.638 661.41 580.438 658.81 589.538" stroke="#423232" stroke-width="13.4786" stroke-miterlimit="10" stroke-linecap="round" stroke-linejoin="round"/>
<path d="M853.81 598.207C853.81 598.207 853.81 584.34 873.743 584.34C890.21 584.34 897.143 599.507 897.143 599.507" stroke="#423232" stroke-width="13.4786" stroke-miterlimit="10" stroke-linecap="round" stroke-linejoin="round"/>
<path d="M743.742 524.54C752.842 527.573 761.942 519.34 760.209 509.373C759.342 504.173 757.175 498.973 752.842 495.073C739.842 483.373 686.109 472.973 653.609 488.14C625.009 502.006 702.142 510.673 743.742 524.54Z" fill="#423232"/>
<path d="M873.308 531.473C865.941 534.073 858.141 526.273 859.441 517.173C859.875 512.406 861.608 507.64 865.075 504.173C875.475 493.773 911.008 485.54 933.541 501.573C953.041 515.006 907.108 518.906 873.308 531.473Z" fill="#423232"/>
<path d="M804.157 772.845C804.607 780.033 799.215 792.613 789.331 801.599C738.561 770.598 715.648 786.772 715.648 786.772C697.676 759.366 701.72 722.075 745.301 750.38C775.852 769.7 794.273 772.845 804.157 772.845Z" fill="#423232"/>
<path d="M789.331 801.599C778.548 811.034 762.374 816.874 740.359 807.889C730.025 803.845 721.938 795.758 715.648 786.772C715.648 786.772 738.562 770.598 789.331 801.599Z" fill="#FE9DAB"/>
<path d="M812.694 771.048C812.694 771.048 793.824 781.381 745.301 750.381C687.343 713.09 699.025 791.266 739.91 807.889C782.592 825.411 804.607 787.222 804.158 772.845" stroke="#423232" stroke-width="13.4786" stroke-miterlimit="10" stroke-linecap="round" stroke-linejoin="round"/>
<path d="M715.648 786.772C715.648 786.772 738.562 770.598 789.331 801.599" stroke="#423232" stroke-width="13.4786" stroke-miterlimit="10" stroke-linecap="round" stroke-linejoin="round"/>
<path d="M974.205 347.828C943.439 459.194 854.172 440.561 770.539 410.228C659.172 369.494 561.239 402.428 560.805 502.961C559.939 650.294 523.105 605.661 519.205 600.028C509.672 581.828 489.305 559.294 450.739 564.061C400.039 570.561 380.105 682.361 474.572 728.294C491.039 811.928 445.972 804.128 445.972 804.128C430.805 742.594 303.406 611.728 302.972 525.494C302.972 409.361 361.472 376.428 361.472 376.428C363.205 295.395 447.705 206.128 589.839 209.161C731.972 211.761 819.072 207.861 846.805 174.495C874.539 140.261 1004.97 236.461 974.205 347.828Z" fill="#423232"/>
<path d="M977.673 481.726C973.339 509.893 961.206 531.56 944.306 547.593C950.806 500.36 947.339 477.826 941.706 451.393C929.573 397.226 903.573 350.426 860.239 315.76C881.906 314.026 904.006 318.793 923.939 331.36C923.939 330.926 995.439 359.96 977.673 481.726Z" fill="#423232"/>
<path d="M477.159 636.125C477.159 636.125 442.492 630.925 445.092 679.459C446.392 704.159 446.392 717.592 445.959 724.525C445.525 729.292 448.559 733.625 452.892 735.359C458.092 737.525 463.726 735.359 466.326 730.159C470.226 723.225 474.559 713.692 474.559 705.892C474.559 692.892 488.425 681.192 488.425 681.192C488.425 681.192 475.859 670.359 477.159 636.125Z" fill="white"/>
<path d="M582.025 1471.59C578.558 1467.69 442.492 1234.99 462.859 1147.46C476.725 1087.23 458.525 1017.89 442.492 956.793C435.992 931.659 429.925 908.259 426.458 887.459C420.392 851.493 424.725 817.259 439.458 785.626C455.492 750.093 452.892 719.326 452.892 718.893L461.558 718.026C461.558 719.326 464.158 751.826 447.258 789.093C433.392 818.993 429.492 851.926 435.125 886.159C438.592 906.526 444.659 929.926 451.159 955.059C467.625 1017.03 485.825 1087.66 471.525 1150.06C452.459 1233.26 588.092 1465.96 588.958 1466.83L582.025 1471.59Z" fill="white"/>
<path d="M446.392 704.592C446.826 714.125 446.392 720.625 446.392 724.525C445.959 729.292 448.993 733.625 453.326 735.358C458.526 737.525 464.159 735.358 466.759 730.158C470.659 723.225 474.993 713.692 474.993 705.892C474.993 705.458 474.993 704.592 474.993 704.158C465.893 707.625 455.492 710.225 446.392 704.592Z" fill="#E5E5E5"/>
<path d="M854.158 992.759C851.125 1012.69 850.692 1044.33 849.825 1081.16C848.525 1152.23 806.492 1429.13 786.125 1472.89L778.325 1469.43C797.825 1426.96 839.858 1151.36 841.158 1081.16C842.025 1044.33 842.458 1012.26 845.492 991.459C851.992 947.692 847.225 914.759 844.625 900.892C845.925 899.592 847.225 898.725 848.525 897.425C849.825 896.559 850.692 895.259 851.992 894.392C854.592 905.659 861.958 941.625 854.158 992.759Z" fill="white"/>
</g>
</svg>
